<svg width="32" height="32" viewBox="0 0 32 32" fill="none" xmlns="http://www.w3.org/2000/svg">
<path fill-rule="evenodd" clip-rule="evenodd" d="M24.9451 17C24.4476 21.5 20.6326 25 16 25C11.3674 25 7.55237 21.5 7.05493 17H24.9451ZM24.0645 12H7.93552C9.40822 9.03656 12.4663 7 16 7C19.5337 7 22.5918 9.03656 24.0645 12ZM27 16C27 22.0751 22.0751 27 16 27C9.92487 27 5 22.0751 5 16C5 9.92487 9.92487 5 16 5C22.0751 5 27 9.92487 27 16ZM9.74805 13.5C9.19576 13.5 8.74805 13.9477 8.74805 14.5C8.74805 15.0523 9.19576 15.5 9.74805 15.5H13.9692C14.5214 15.5 14.9692 15.0523 14.9692 14.5C14.9692 13.9477 14.5214 13.5 13.9692 13.5H9.74805ZM16.9219 14.5C16.9219 13.9477 17.3696 13.5 17.9219 13.5H22.143C22.6953 13.5 23.143 13.9477 23.143 14.5C23.143 15.0523 22.6953 15.5 22.143 15.5H17.9219C17.3696 15.5 16.9219 15.0523 16.9219 14.5Z" fill="#898989"/>
</svg>
