<svg width="32" height="32" viewBox="0 0 32 32" fill="none" xmlns="http://www.w3.org/2000/svg">
<path fill-rule="evenodd" clip-rule="evenodd" d="M14.4629 7.87207H17.4629C18.0152 7.87207 18.4629 8.31979 18.4629 8.87207V10.1593H13.4629V8.87207C13.4629 8.31979 13.9106 7.87207 14.4629 7.87207ZM11.4629 10.1593V8.87207C11.4629 7.21522 12.806 5.87207 14.4629 5.87207H17.4629C19.1197 5.87207 20.4629 7.21522 20.4629 8.87207V10.1593H25.2246C26.8815 10.1593 28.2246 11.5024 28.2246 13.1593V23.1278C28.2246 24.7847 26.8815 26.1278 25.2246 26.1278H6.77344C5.11658 26.1278 3.77344 24.7847 3.77344 23.1278V13.1593C3.77344 11.5024 5.11658 10.1593 6.77344 10.1593H11.4629ZM11.4629 12.1593H6.77344C6.22115 12.1593 5.77344 12.607 5.77344 13.1593V23.1278C5.77344 23.6801 6.22115 24.1278 6.77344 24.1278H25.2246C25.7769 24.1278 26.2246 23.6801 26.2246 23.1278V13.1593C26.2246 12.607 25.7769 12.1593 25.2246 12.1593H20.4629V12.162H18.4629H13.4629H11.4629V12.1593Z" fill="#898989"/>
</svg>
