<svg xmlns="http://www.w3.org/2000/svg" width="40" height="40" viewBox="0 0 40 40" fill="none">
  <path d="M20.0387 11.8354C21.4168 11.8354 22.5412 12.9597 22.5412 14.3378C22.5412 15.716 21.4168 16.8402 20.0387 16.8402C18.6607 16.8402 17.5363 15.716 17.5363 14.3378C17.5 12.9597 18.6243 11.8354 20.0387 11.8354Z" fill="#14171B"/>
  <path fill-rule="evenodd" clip-rule="evenodd" d="M20 0C8.95431 0 0 8.95431 0 20C0 31.0457 8.95431 40 20 40C31.0457 40 40 31.0457 40 20C40 8.95431 31.0457 0 20 0ZM20.0387 20.3943C23.3753 20.3943 26.0953 17.6743 26.0953 14.3378C26.0953 11.0013 23.3753 8.28125 20.0387 8.28125C16.6659 8.28125 13.9459 11.0013 13.9459 14.3378C13.9459 17.6743 16.6659 20.3943 20.0387 20.3943ZM22.4687 25.363C23.7017 25.0728 24.8985 24.6013 25.9865 23.9123C26.8207 23.4045 27.0745 22.2803 26.5305 21.4462C26.0228 20.612 24.8985 20.3582 24.0643 20.9022C21.5982 22.4617 18.3705 22.4617 15.9044 20.9022C15.0702 20.3945 13.9822 20.612 13.4382 21.4462C12.9667 22.2803 13.2206 23.3683 14.0548 23.876C15.1428 24.5652 16.3396 25.0365 17.5727 25.3267L14.1998 28.6995C13.5107 29.3887 13.5107 30.5128 14.1998 31.202C14.5625 31.5647 14.9977 31.7097 15.4692 31.7097C15.9406 31.7097 16.3758 31.5283 16.7385 31.202L20.075 27.8653L23.4117 31.202C24.1007 31.891 25.225 31.891 25.914 31.202C26.603 30.5128 26.603 29.3887 25.914 28.6995L22.4687 25.363Z" fill="#14171B"/>
</svg>