<svg width="32" height="32" viewBox="0 0 32 32" fill="none" xmlns="http://www.w3.org/2000/svg">
<path fill-rule="evenodd" clip-rule="evenodd" d="M19.2109 10.2817C19.2109 11.8911 17.9063 13.1958 16.2969 13.1958C14.6875 13.1958 13.3828 11.8911 13.3828 10.2817C13.3828 8.67235 14.6875 7.36768 16.2969 7.36768C17.9063 7.36768 19.2109 8.67235 19.2109 10.2817ZM17.6536 15.0061C19.7077 14.4173 21.2109 12.5251 21.2109 10.2817C21.2109 7.56778 19.0108 5.36768 16.2969 5.36768C13.5829 5.36768 11.3828 7.56778 11.3828 10.2817C11.3828 12.5174 12.8757 14.4043 14.919 15H14.6621C10.2438 15 6.66211 18.5817 6.66211 23V23.6323C6.66211 25.2892 8.00525 26.6323 9.66211 26.6323H22.3379C23.9947 26.6323 25.3379 25.2892 25.3379 23.6323V23C25.3379 18.6874 21.9255 15.1719 17.6536 15.0061ZM14.6621 17H17.3379C20.6516 17 23.3379 19.6863 23.3379 23V23.6323C23.3379 24.1846 22.8902 24.6323 22.3379 24.6323H9.66211C9.10982 24.6323 8.66211 24.1846 8.66211 23.6323V23C8.66211 19.6863 11.3484 17 14.6621 17Z" fill="#898989"/>
</svg>
