<svg width="32" height="32" viewBox="0 0 32 32" fill="none" xmlns="http://www.w3.org/2000/svg">
<path fill-rule="evenodd" clip-rule="evenodd" d="M16.1974 24.9979C16.1318 24.9993 16.066 25 16 25C15.934 25 15.8682 24.9993 15.8026 24.9979C15.6529 24.9518 15.4578 24.8456 15.2183 24.6173C14.846 24.2625 14.4425 23.6781 14.071 22.841C13.7599 22.14 13.4919 21.3083 13.2856 20.3763C15.1041 20.1954 16.8278 20.165 18.724 20.3325C18.5165 21.2823 18.245 22.1291 17.929 22.841C17.5575 23.6781 17.154 24.2625 16.7817 24.6173C16.5422 24.8456 16.3471 24.9518 16.1974 24.9979ZM18.9829 18.8501C16.8918 18.6566 15.0078 18.6917 13.0232 18.8954C12.9006 17.9937 12.833 17.0261 12.833 16.0134C12.833 14.9908 12.902 14.0142 13.0268 13.105C15.0089 13.3083 16.8909 13.3432 18.9793 13.1502C19.1003 14.0466 19.167 15.0077 19.167 16.0134C19.167 17.0092 19.1016 17.9613 18.9829 18.8501ZM20.2219 20.5012C19.8783 22.1396 19.3524 23.5458 18.7032 24.587C20.6485 23.9752 22.3091 22.7205 23.4357 21.0721C22.2821 20.8254 21.2219 20.6371 20.2219 20.5012ZM24.2047 19.7045C22.8553 19.4049 21.6261 19.1803 20.4732 19.022C20.5993 18.0688 20.667 17.059 20.667 16.0134C20.667 14.9583 20.598 13.9394 20.4697 12.9784C21.6236 12.8201 22.8539 12.5954 24.2047 12.2955C24.7156 13.4253 25 14.6794 25 16C25 17.3206 24.7156 18.5747 24.2047 19.7045ZM11.534 19.0757C11.4033 18.1067 11.333 17.0786 11.333 16.0134C11.333 14.9386 11.4046 13.9015 11.5375 12.9248C10.3658 12.7633 9.13668 12.5516 7.79289 12.3009C7.28351 13.4293 7 14.6815 7 16C7 17.3185 7.28351 18.5707 7.79289 19.6991C9.13532 19.4486 10.3633 19.2371 11.534 19.0757ZM8.57026 21.0808C9.69678 22.725 11.3549 23.9763 13.2968 24.587C12.6547 23.5571 12.1331 22.17 11.7893 20.5544C10.7778 20.6928 9.71847 20.8707 8.57026 21.0808ZM14.071 9.18588C13.7628 9.88023 13.4969 10.7029 13.2914 11.6243C15.1059 11.8045 16.8263 11.8348 18.7183 11.668C18.5114 10.7289 18.242 9.8912 17.929 9.18588C17.5575 8.34879 17.154 7.76435 16.7817 7.40956C16.4588 7.10181 16.2167 7.01582 16.0575 7.00018L16 7L15.9425 7.00018C15.7833 7.01582 15.5412 7.10181 15.2183 7.40956C14.846 7.76435 14.4425 8.34879 14.071 9.18588ZM20.2164 11.4995C21.218 11.3636 22.28 11.175 23.4357 10.9279C22.305 9.27354 20.6366 8.01581 18.6822 7.40645C19.3376 8.44537 19.869 9.85476 20.2164 11.4995ZM8.57026 10.9192C9.72057 11.1297 10.7817 11.3078 11.7949 11.4464C12.1425 9.8244 12.6695 8.43417 13.3178 7.40645C11.3668 8.01474 9.70083 9.26913 8.57026 10.9192ZM27 16C27 22.0751 22.0751 27 16 27C9.92487 27 5 22.0751 5 16C5 9.92487 9.92487 5 16 5C22.0751 5 27 9.92487 27 16Z" fill="#898989"/>
</svg>
