<svg width="32" height="32" viewBox="0 0 32 32" fill="none" xmlns="http://www.w3.org/2000/svg">
<path fill-rule="evenodd" clip-rule="evenodd" d="M25 16C25 20.9706 20.9706 25 16 25C11.0294 25 7 20.9706 7 16C7 11.0294 11.0294 7 16 7C20.9706 7 25 11.0294 25 16ZM27 16C27 22.0751 22.0751 27 16 27C9.92487 27 5 22.0751 5 16C5 9.92487 9.92487 5 16 5C22.0751 5 27 9.92487 27 16ZM13.954 19.892C14.09 20.028 14.282 20.096 14.53 20.096C14.786 20.096 14.978 20.028 15.106 19.892C15.242 19.748 15.31 19.544 15.31 19.28V18.332H16.75C16.934 18.332 17.074 18.288 17.17 18.2C17.274 18.104 17.326 17.972 17.326 17.804C17.326 17.636 17.274 17.508 17.17 17.42C17.074 17.324 16.934 17.276 16.75 17.276H15.31V16.46H16.678C17.27 16.46 17.774 16.36 18.19 16.16C18.606 15.96 18.926 15.68 19.15 15.32C19.374 14.96 19.486 14.536 19.486 14.048C19.486 13.544 19.374 13.104 19.15 12.728C18.934 12.352 18.61 12.06 18.178 11.852C17.754 11.644 17.234 11.54 16.618 11.54H14.518C14.27 11.54 14.078 11.608 13.942 11.744C13.814 11.872 13.75 12.06 13.75 12.308V15.404H13.21C13.026 15.404 12.882 15.452 12.778 15.548C12.682 15.636 12.634 15.764 12.634 15.932C12.634 16.1 12.682 16.232 12.778 16.328C12.882 16.416 13.026 16.46 13.21 16.46H13.75V17.276H13.21C13.026 17.276 12.882 17.324 12.778 17.42C12.682 17.508 12.634 17.636 12.634 17.804C12.634 17.972 12.682 18.104 12.778 18.2C12.882 18.288 13.026 18.332 13.21 18.332H13.75V19.28C13.75 19.544 13.818 19.748 13.954 19.892ZM16.426 15.404H15.286V12.836H16.426C16.938 12.836 17.326 12.944 17.59 13.16C17.862 13.376 17.998 13.708 17.998 14.156C17.998 14.604 17.862 14.924 17.59 15.116C17.318 15.308 16.93 15.404 16.426 15.404Z" fill="#898989"/>
</svg>
