<svg width="24" height="25" viewBox="0 0 24 25" fill="none" xmlns="http://www.w3.org/2000/svg">
<path d="M6 10.8572C4.9 10.8572 4 11.7572 4 12.8572C4 13.9572 4.9 14.8572 6 14.8572C7.1 14.8572 8 13.9572 8 12.8572C8 11.7572 7.1 10.8572 6 10.8572ZM18 10.8572C16.9 10.8572 16 11.7572 16 12.8572C16 13.9572 16.9 14.8572 18 14.8572C19.1 14.8572 20 13.9572 20 12.8572C20 11.7572 19.1 10.8572 18 10.8572ZM12 10.8572C10.9 10.8572 10 11.7572 10 12.8572C10 13.9572 10.9 14.8572 12 14.8572C13.1 14.8572 14 13.9572 14 12.8572C14 11.7572 13.1 10.8572 12 10.8572Z" fill="currentColor"/>
</svg>
