<svg width="32" height="32" viewBox="0 0 32 32" fill="none" xmlns="http://www.w3.org/2000/svg">
<path fill-rule="evenodd" clip-rule="evenodd" d="M16.0001 8.61586C13.5979 6.21416 9.70362 6.21431 7.30162 8.61631C4.89961 11.0183 4.89946 14.9126 7.30116 17.3148L14.5859 24.5996C15.3669 25.3807 16.6333 25.3807 17.4143 24.5996L24.6991 17.3149C27.1008 14.9127 27.1006 11.0183 24.6986 8.61631C22.2966 6.21431 18.4023 6.21416 16.0001 8.61586ZM23.2847 15.9008C24.9055 14.2796 24.9054 11.6515 23.2844 10.0305C21.6634 8.40952 19.0353 8.40942 17.4142 10.0302L16.7072 10.7371C16.3167 11.1275 15.6836 11.1275 15.2931 10.7371L14.5861 10.0302C12.9649 8.40942 10.3368 8.40952 8.71583 10.0305C7.09482 11.6515 7.09472 14.2796 8.71552 15.9008L16.0001 23.1854L23.2847 15.9008Z" fill="#898989"/>
</svg>
