<svg width="46" height="46" viewBox="0 0 46 46" fill="none" xmlns="http://www.w3.org/2000/svg">
<path fill-rule="evenodd" clip-rule="evenodd" d="M31.0087 8.54961C29.0822 8.9872 27.2564 10.4366 26.3854 12.2193C25.9077 13.1972 25.7026 14.115 25.7008 15.284C25.6978 17.1279 26.3666 18.7528 27.6709 20.0701C29.0034 21.4157 30.5751 22.0613 32.5183 22.0613C33.7511 22.0613 34.5153 21.8874 35.572 21.3664C36.3415 20.9869 37.7757 19.7594 37.7757 19.4803C37.7757 19.4048 37.4138 19.0589 36.9714 18.7118L36.1671 18.0804L35.6188 18.604C34.8029 19.3834 33.8834 19.7805 32.7701 19.8342C30.8361 19.9276 29.3789 19.0658 28.5891 17.3613C27.9366 15.9532 27.9685 14.3516 28.6772 12.9206C29.7602 10.7345 32.3875 9.88416 34.723 10.9639L35.2772 11.2202V12.33V13.4398H36.3703H37.4634V11.819V10.1981L37.073 9.88741C36.5136 9.44225 35.5176 8.95871 34.6347 8.70364C33.6309 8.41366 31.926 8.34122 31.0087 8.54961ZM10.7076 9.81245V10.9164H11.835H12.9623L14.0322 13.9392C14.6207 15.6018 15.5028 18.0872 15.9925 19.4626L16.8828 21.9631L17.9324 21.9334L18.9821 21.9036L19.4797 20.5894C19.7534 19.8665 20.6675 17.4062 21.511 15.1221L23.0448 10.969L24.1118 10.939L25.1787 10.9091V9.80877V8.70847H23.2777H21.3766L20.9372 9.99645C19.8992 13.0391 18.1941 18.026 18.1419 18.1711C18.0916 18.3113 18.0756 18.3113 17.9976 18.1711C17.9223 18.0356 16.5711 14.1095 15.1662 9.94387L14.7495 8.70847H12.7286H10.7076V9.81245ZM19.1587 24.8023C18.0759 25.0176 16.944 25.7573 16.2432 26.7079L15.861 27.2263L15.7932 26.6678C15.7559 26.3605 15.7208 25.8136 15.7151 25.4521L15.7048 24.795H13.6747H11.6446V25.7938V26.7927H12.6857H13.7268V31.2086V35.6245H12.6857H11.6446V36.6769V37.7293L16.6158 37.7021L21.5869 37.6747V36.6759V35.677L18.8281 35.6245L16.0692 35.5719L16.0412 33.0485C16.0105 30.2764 16.0713 29.7661 16.5472 28.8043C17.076 27.7355 18.2707 26.8543 19.2966 26.7761L19.713 26.7445L19.6807 27.7148L19.6486 28.6852H20.7478H21.8472V26.6875V24.6898L20.728 24.7014C20.1125 24.7077 19.4063 24.7531 19.1587 24.8023ZM24.3458 25.899V27.0029H25.3348H26.3239V30.5031C26.3239 34.2741 26.3686 34.6854 26.9001 35.7936C27.2238 36.4685 28.132 37.3449 28.8536 37.6786C29.1573 37.819 29.7618 37.9898 30.1971 38.0581C31.9799 38.338 33.578 37.6493 34.5366 36.1877C34.8982 35.6364 34.8965 35.6341 35.0733 36.8599L35.1984 37.7273H36.9556H38.7127V36.6759V35.6245H37.8929H37.073L37.008 35.2959C36.9721 35.1152 36.9429 32.6785 36.9429 29.8812V24.795H34.6525H32.3621V25.899V27.0029H33.5156H34.6693L34.6307 30.0257C34.5856 33.5708 34.5327 33.8085 33.5517 34.8787C32.8176 35.6795 32.1601 35.9843 31.1649 35.9854C30.0349 35.9867 29.3819 35.563 28.9056 34.5192C28.6692 34.0011 28.6659 33.9393 28.6352 29.3949L28.604 24.795H26.4749H24.3458V25.899ZM7.16797 36.6759V37.8396L8.28713 37.8097L9.40629 37.7799V36.6759V35.5719L8.28713 35.542L7.16797 35.5122V36.6759Z" fill="currentColor"/>
</svg>
