<svg width="24" height="25" viewBox="0 0 24 25" fill="none" xmlns="http://www.w3.org/2000/svg">
<path fill-rule="evenodd" clip-rule="evenodd" d="M21 15.2856L21 9.28564C21 8.73336 20.5523 8.28564 20 8.28564L4 8.28564C3.44772 8.28564 3 8.73336 3 9.28564L3 15.2856C3 15.8379 3.44772 16.2856 4 16.2856L20 16.2856C20.5523 16.2856 21 15.8379 21 15.2856ZM22 9.28564C22 8.18108 21.1046 7.28564 20 7.28564L4 7.28564C2.89543 7.28564 2 8.18107 2 9.28564L2 15.2856C2 16.3902 2.89543 17.2856 4 17.2856L20 17.2856C21.1046 17.2856 22 16.3902 22 15.2856L22 9.28564Z" fill="currentColor"/>
</svg>
