<svg width="32" height="32" viewBox="0 0 32 32" fill="none" xmlns="http://www.w3.org/2000/svg">
<path fill-rule="evenodd" clip-rule="evenodd" d="M6.77076 9.89209H25.2283C25.7808 9.89209 26.2287 10.3398 26.2287 10.8921V21.1077C26.2287 21.6599 25.7808 22.1077 25.2283 22.1077H6.77076C6.21825 22.1077 5.77035 21.6599 5.77035 21.1077V10.8921C5.77035 10.3398 6.21825 9.89209 6.77076 9.89209ZM3.76953 10.8921C3.76953 9.23524 5.11323 7.89209 6.77076 7.89209H25.2283C26.8858 7.89209 28.2295 9.23524 28.2295 10.8921V21.1077C28.2295 22.7645 26.8858 24.1077 25.2283 24.1077H6.77076C5.11322 24.1077 3.76953 22.7645 3.76953 21.1077V10.8921ZM8.23229 13.0814C7.81791 13.0814 7.48199 13.4172 7.48199 13.8314C7.48199 14.2456 7.81791 14.5814 8.23229 14.5814H16.7221C17.1365 14.5814 17.4724 14.2456 17.4724 13.8314C17.4724 13.4172 17.1365 13.0814 16.7221 13.0814H8.23229ZM7.48199 16.7878C7.48199 16.3736 7.81791 16.0378 8.23229 16.0378H12.4762C12.8906 16.0378 13.2265 16.3736 13.2265 16.7878C13.2265 17.2021 12.8906 17.5378 12.4762 17.5378H8.23229C7.81791 17.5378 7.48199 17.2021 7.48199 16.7878Z" fill="#898989"/>
</svg>
