<svg width="47" height="47" viewBox="0 0 47 47" fill="none" xmlns="http://www.w3.org/2000/svg">
<path fill-rule="evenodd" clip-rule="evenodd" d="M41.0527 37.4491C44.2035 33.5134 46.0878 28.5197 46.0878 23.0859C46.0878 10.3834 35.7904 0.0859375 23.0878 0.0859375C15.815 0.0859375 9.33051 3.46161 5.11582 8.73163C1.96815 12.6664 0.0859375 17.6575 0.0859375 23.0883C0.0859375 35.7909 10.3834 46.0883 23.0859 46.0883C30.3558 46.0883 36.8379 42.7154 41.0527 37.4491ZM23.0878 46.0859C30.3566 46.0859 36.8379 42.7141 41.0527 37.4491C44.2024 33.5137 46.0859 28.521 46.0859 23.0883C46.0859 10.3858 35.7885 0.0883049 23.0859 0.0883049C15.8141 0.0883049 9.33055 3.46297 5.11582 8.73163C1.96929 12.666 0.0878315 17.6563 0.0878315 23.0859C0.0878315 35.7885 10.3853 46.0859 23.0878 46.0859ZM10.4971 22.8455C17.202 19.9243 21.6731 17.9984 23.9102 17.0679C30.2975 14.4112 31.6247 13.9497 32.4898 13.9345C32.6801 13.9311 33.1055 13.9783 33.3811 14.2019C33.6137 14.3907 33.6778 14.6457 33.7084 14.8247C33.739 15.0037 33.7772 15.4115 33.7469 15.7302C33.4007 19.367 31.903 28.1927 31.1411 32.266C30.8187 33.9896 30.1838 34.5675 29.5692 34.624C28.5115 34.7213 27.6554 34.111 26.7025 33.4316C26.452 33.2531 26.1949 33.0698 25.9257 32.8933C24.869 32.2006 24.0523 31.6445 23.2334 31.0868L23.2334 31.0868C22.4836 30.5762 21.7321 30.0644 20.7929 29.4455C18.8384 28.1575 19.6566 27.3688 20.7476 26.3171C20.9242 26.1469 21.1079 25.9697 21.2883 25.7824C21.3687 25.6989 21.7622 25.333 22.3171 24.8172L22.3176 24.8167C24.0982 23.1613 27.5389 19.9625 27.6258 19.5923C27.64 19.5316 27.6532 19.3052 27.5187 19.1857C27.3843 19.0661 27.1858 19.107 27.0425 19.1395C26.8395 19.1856 23.6057 21.3231 17.341 25.5519C16.4231 26.1822 15.5917 26.4893 14.8467 26.4732C14.0255 26.4555 12.4458 26.0089 11.2715 25.6271C11.0991 25.5711 10.931 25.5182 10.7687 25.4672L10.7684 25.4671C9.5748 25.0918 8.69826 24.8162 8.78601 24.1162C8.83793 23.702 9.40828 23.2785 10.4971 22.8455Z" fill="currentColor"/>
</svg>
