<svg width="32" height="32" viewBox="0 0 32 32" fill="none" xmlns="http://www.w3.org/2000/svg">
<path fill-rule="evenodd" clip-rule="evenodd" d="M15.6364 6.41423L8.61171 13.4389C8.22118 13.8294 8.22118 14.4626 8.6117 14.8531L10.6287 16.8701C11.0192 17.2606 11.6524 17.2606 12.0429 16.8701L19.0676 9.84542C19.4581 9.4549 19.4581 8.82174 19.0676 8.43121L17.0506 6.41423C16.6601 6.02371 16.0269 6.02371 15.6364 6.41423ZM7.19749 12.0247C6.02592 13.1963 6.02592 15.0958 7.19749 16.2673L9.21447 18.2843C10.386 19.4559 12.2855 19.4559 13.4571 18.2843L15.0912 16.6502L15.2532 16.8121L22.3897 23.9487C23.4268 24.9858 25.1083 24.9858 26.1455 23.9487C27.1826 22.9115 27.1826 21.23 26.1455 20.1929L19.0089 13.0564L18.847 12.8944L20.4818 11.2596C21.6534 10.0881 21.6534 8.18857 20.4818 7.017L18.4648 5.00002C17.2932 3.82844 15.3937 3.82845 14.2222 5.00002L7.19749 12.0247ZM6.07617 25.8787C5.52389 25.8787 5.07617 26.3264 5.07617 26.8787C5.07617 27.431 5.52389 27.8787 6.07617 27.8787H15.0762C15.6285 27.8787 16.0762 27.431 16.0762 26.8787C16.0762 26.3264 15.6285 25.8787 15.0762 25.8787H6.07617ZM23.8039 22.5345L16.6674 15.3979L17.5947 14.4706L24.7313 21.6071C24.9873 21.8632 24.9873 22.2784 24.7313 22.5345C24.4752 22.7905 24.06 22.7905 23.8039 22.5345Z" fill="#898989"/>
</svg>
