<svg width="32" height="32" viewBox="0 0 32 32" fill="none" xmlns="http://www.w3.org/2000/svg">
<path fill-rule="evenodd" clip-rule="evenodd" d="M7.55217 9.75806H22.0993C22.4859 9.75806 22.8378 9.98086 23.0032 10.3303L26.8347 18.4262C27.1487 19.0896 26.6648 19.854 25.9309 19.854H25.123C24.6942 18.4794 23.4115 17.4817 21.8957 17.4817C20.3799 17.4817 19.0972 18.4794 18.6684 19.854H13.1601C12.7313 18.4794 11.4486 17.4817 9.9328 17.4817C8.41702 17.4817 7.13428 18.4794 6.70551 19.854H6.06728C5.44275 19.854 4.97102 19.2879 5.08369 18.6736L6.56858 10.5777C6.65566 10.1029 7.06946 9.75806 7.55217 9.75806ZM6.70072 21.854H6.06728C4.19369 21.854 2.77851 20.1557 3.11651 18.3128L4.60139 10.2168C4.86263 8.79249 6.10406 7.75806 7.55217 7.75806H22.0993C23.259 7.75806 24.3148 8.42648 24.8109 9.47472L28.6425 17.5707C29.5844 19.5609 28.1328 21.854 25.9309 21.854H25.1278C24.7038 23.2366 23.4172 24.2418 21.8957 24.2418C20.3742 24.2418 19.0875 23.2366 18.6636 21.854H13.1649C12.7409 23.2366 11.4543 24.2418 9.9328 24.2418C8.41133 24.2418 7.12465 23.2366 6.70072 21.854ZM9.9328 22.2418C10.695 22.2418 11.3129 21.6239 11.3129 20.8618C11.3129 20.0996 10.695 19.4817 9.9328 19.4817C9.17061 19.4817 8.55273 20.0996 8.55273 20.8618C8.55273 21.6239 9.17061 22.2418 9.9328 22.2418ZM21.8957 22.2418C22.6579 22.2418 23.2758 21.6239 23.2758 20.8618C23.2758 20.0996 22.6579 19.4817 21.8957 19.4817C21.1335 19.4817 20.5156 20.0996 20.5156 20.8618C20.5156 21.6239 21.1335 22.2418 21.8957 22.2418Z" fill="#898989"/>
</svg>
