<svg width="31" height="32" viewBox="0 0 31 32" fill="none" xmlns="http://www.w3.org/2000/svg">
<g clip-path="url(#clip0_10613_21059)">
<path d="M20.0081 13.3686C19.7756 9.76485 18.316 6.25152 15.5777 3.51318C12.8135 6.27735 11.2893 9.79068 10.9922 13.3686C12.6456 14.2469 14.1697 15.3836 15.5002 16.7657C16.8306 15.3965 18.3547 14.2599 20.0081 13.3686V13.3686ZM15.5647 7.6336C16.3785 8.96402 16.9468 10.4494 17.2439 11.9994C16.6368 12.3869 16.0685 12.8132 15.5131 13.2653C14.9706 12.8261 14.3893 12.3998 13.7952 12.0123C14.1181 10.4623 14.7122 8.97693 15.5647 7.6336V7.6336ZM15.5002 20.8861C14.441 19.2715 13.0977 17.8636 11.5477 16.7528C11.3797 16.6365 11.1989 16.5461 11.031 16.4169C11.1989 16.5332 11.3797 16.6365 11.5347 16.7398C9.016 14.9186 5.92891 13.8465 2.5835 13.8465C2.5835 20.7182 6.9235 26.5307 12.9556 28.6878C13.7693 28.9848 14.6218 29.2044 15.5002 29.3465C16.3785 29.1915 17.2181 28.9719 18.0447 28.6878C24.0768 26.5307 28.4168 20.7182 28.4168 13.8465C23.0177 13.8465 18.2772 16.6494 15.5002 20.8861ZM17.2052 26.2465C16.6368 26.4403 16.0685 26.5953 15.4872 26.7244C14.9189 26.6082 14.3635 26.4532 13.8339 26.2594C9.58433 24.7353 6.47141 21.1057 5.50266 16.7657C6.9235 17.1015 8.27975 17.6828 9.53266 18.4836L9.50683 18.4965C9.67475 18.6128 9.84266 18.729 10.0106 18.8194L10.101 18.8711C11.3797 19.8011 12.4777 20.9507 13.3431 22.294L15.5002 25.6007L17.6572 22.3069C18.5485 20.9507 19.6593 19.7882 20.9252 18.8711L21.0156 18.8065C21.1318 18.7419 21.2481 18.6644 21.3643 18.5869L21.3514 18.5611C22.6172 17.7215 24.0252 17.1015 25.4977 16.7528C24.5289 21.1057 21.4289 24.7353 17.2052 26.2465V26.2465ZM11.6122 16.7915C11.5864 16.7786 11.5606 16.7528 11.5477 16.7398C11.5477 16.7398 11.5606 16.7398 11.5606 16.7528C11.5735 16.7657 11.5864 16.7786 11.6122 16.7915V16.7915Z" fill="#FDFDFE"/>
</g>
<defs>
<clipPath id="clip0_10613_21059">
<rect width="31" height="31" fill="white" transform="translate(0 0.929688)"/>
</clipPath>
</defs>
</svg>
