<svg width="56" height="56" viewBox="0 0 56 56" fill="none" xmlns="http://www.w3.org/2000/svg">
<path d="M56 28C56 43.464 43.464 56 28 56C12.536 56 0 43.464 0 28C0 12.536 12.536 0 28 0C43.464 0 56 12.536 56 28Z" fill="white"/>
<path d="M37.0417 30.5832V34.4582C37.0417 35.1686 36.4604 35.7498 35.75 35.7498H34.4583V30.5832H37.0417ZM21.5417 30.5832V35.7498H20.25C19.5396 35.7498 18.9583 35.1686 18.9583 34.4582V30.5832H21.5417ZM28 13.7915C21.5804 13.7915 16.375 18.9969 16.375 25.4165V34.4582C16.375 36.6023 18.1058 38.3332 20.25 38.3332H24.125V27.9998H18.9583V25.4165C18.9583 20.4178 23.0012 16.3748 28 16.3748C32.9987 16.3748 37.0417 20.4178 37.0417 25.4165V27.9998H31.875V38.3332H35.75C37.8942 38.3332 39.625 36.6023 39.625 34.4582V25.4165C39.625 18.9969 34.4196 13.7915 28 13.7915Z" fill="currentColor"/>
</svg>
