<svg xmlns="http://www.w3.org/2000/svg" width="40" height="40" viewBox="0 0 40 40" fill="none">
  <path d="M13.3733 16.0866C13.48 21.2866 16.08 24.4066 20.64 24.4066H20.9067V21.4333C22.58 21.6 23.8467 22.8266 24.3533 24.4066H26.72C26.4773 23.5088 26.047 22.6727 25.4574 21.9533C24.8679 21.2339 24.1326 20.6477 23.3 20.2333C24.0461 19.779 24.6905 19.1756 25.1929 18.461C25.6953 17.7464 26.045 16.9358 26.22 16.08H24.0733C23.6067 17.7333 22.22 19.2333 20.9067 19.3733V16.0866H18.7533V21.8466C17.42 21.5133 15.74 19.9 15.6667 16.0866H13.3733Z" fill="#14171B"/>
  <path fill-rule="evenodd" clip-rule="evenodd" d="M20 0C31.0457 0 40 8.95431 40 20C40 31.0457 31.0457 40 20 40C8.95431 40 0 31.0457 0 20C0 8.95431 8.95431 0 20 0ZM10 19.6C10 15.0733 10 12.8133 11.4 11.4C12.82 10 15.08 10 19.6 10H20.4C24.9267 10 27.1867 10 28.6 11.4C30 12.82 30 15.08 30 19.6V20.4C30 24.9267 30 27.1867 28.6 28.6C27.18 30 24.92 30 20.4 30H19.6C15.0733 30 12.8133 30 11.4 28.6C10 27.18 10 24.92 10 20.4V19.6Z" fill="#14171B"/>
</svg>