<svg width="32" height="32" viewBox="0 0 32 32" fill="none" xmlns="http://www.w3.org/2000/svg">
<path d="M32 16C32 7.16344 24.8366 0 16 0C7.16344 0 0 7.16344 0 16C0 24.8366 7.16344 32 16 32C24.8366 32 32 24.8366 32 16Z" fill="#0077FF"/>
<path d="M5 15.56C5 10.5807 5 8.09467 6.54 6.54C8.102 5 10.588 5 15.56 5H16.44C21.4193 5 23.9053 5 25.46 6.54C27 8.102 27 10.588 27 15.56V16.44C27 21.4193 27 23.9053 25.46 25.46C23.898 27 21.412 27 16.44 27H15.56C10.5807 27 8.09467 27 6.54 25.46C5 23.898 5 21.412 5 16.44V15.56Z" fill="#0077FF"/>
<path d="M16.7043 20.8474C11.6883 20.8474 8.82827 17.4154 8.71094 11.6954H11.2336C11.3143 15.89 13.1623 17.6647 14.6289 18.0314V11.6954H16.9976V15.3107C18.4423 15.1567 19.9676 13.5067 20.4809 11.688H22.8423C22.6497 12.6294 22.2651 13.5211 21.7125 14.3071C21.1598 15.0932 20.451 15.7569 19.6303 16.2567C20.5462 16.7125 21.355 17.3574 22.0035 18.1487C22.6519 18.94 23.1253 19.8598 23.3923 20.8474H20.7889C20.2316 19.1094 18.8383 17.76 16.9976 17.5767V20.8474H16.7116H16.7043Z" fill="white"/>
</svg>
