<svg width="32" height="32" viewBox="0 0 32 32" fill="none" xmlns="http://www.w3.org/2000/svg">
<path fill-rule="evenodd" clip-rule="evenodd" d="M23.6465 12.8826V22.9574C23.6465 23.5097 23.1988 23.9574 22.6465 23.9574H9.35156C8.79928 23.9574 8.35156 23.5097 8.35156 22.9574V12.9201C8.35156 12.5604 8.54477 12.2284 8.85753 12.0507L15.6814 8.17328C15.9936 7.99589 16.3769 7.99949 16.6858 8.18273L23.1568 12.0226C23.4604 12.2027 23.6465 12.5296 23.6465 12.8826ZM6.35156 12.9201C6.35156 11.841 6.93119 10.845 7.86947 10.3118L14.6934 6.43439C15.6299 5.90221 16.78 5.91303 17.7064 6.46275L24.1774 10.3026C25.0881 10.843 25.6465 11.8236 25.6465 12.8826V22.9574C25.6465 24.6142 24.3033 25.9574 22.6465 25.9574H9.35156C7.69471 25.9574 6.35156 24.6142 6.35156 22.9574V12.9201ZM19.752 15.2959C20.1426 14.9054 20.1426 14.2722 19.752 13.8817C19.3615 13.4912 18.7283 13.4912 18.3378 13.8817L12.2477 19.9718C11.8572 20.3623 11.8572 20.9955 12.2477 21.386C12.6383 21.7765 13.2714 21.7765 13.662 21.386L19.752 15.2959ZM14.7312 14.9925C14.7312 15.751 14.1163 16.3659 13.3578 16.3659C12.5993 16.3659 11.9844 15.751 11.9844 14.9925C11.9844 14.234 12.5993 13.6191 13.3578 13.6191C14.1163 13.6191 14.7312 14.234 14.7312 14.9925ZM18.641 21.6485C19.3995 21.6485 20.0144 21.0336 20.0144 20.2751C20.0144 19.5166 19.3995 18.9017 18.641 18.9017C17.8825 18.9017 17.2676 19.5166 17.2676 20.2751C17.2676 21.0336 17.8825 21.6485 18.641 21.6485Z" fill="#898989"/>
</svg>
