<svg width="24" height="25" viewBox="0 0 24 25" fill="none" xmlns="http://www.w3.org/2000/svg">
<path fill-rule="evenodd" clip-rule="evenodd" d="M15 3.28564H9C8.44772 3.28564 8 3.73336 8 4.28565V20.2856C8 20.8379 8.44772 21.2856 9 21.2856H15C15.5523 21.2856 16 20.8379 16 20.2856V4.28564C16 3.73336 15.5523 3.28564 15 3.28564ZM9 2.28564C7.89543 2.28564 7 3.18108 7 4.28565V20.2856C7 21.3902 7.89543 22.2856 9 22.2856H15C16.1046 22.2856 17 21.3902 17 20.2856V4.28564C17 3.18108 16.1046 2.28564 15 2.28564H9Z" fill="currentColor"/>
</svg>
