<svg width="32" height="32" viewBox="0 0 32 32" fill="none" xmlns="http://www.w3.org/2000/svg">
<path fill-rule="evenodd" clip-rule="evenodd" d="M26.2949 13.3559L16 7.6438L5.70506 13.3559L26.2949 13.3559ZM16.9725 5.89548C16.3677 5.5599 15.6323 5.5599 15.0275 5.89548L4.73253 11.6076C2.92618 12.6098 3.63868 15.3559 5.70506 15.3559H6.98846V24.0588C5.8621 24.1827 4.98589 25.1362 4.98589 26.2941H6.98846V26.3561H8.99102V26.2941H27.0141C27.0141 25.1362 26.1379 24.1827 25.0115 24.0588V15.3559H26.2949C28.3613 15.3559 29.0738 12.6098 27.2675 11.6076L16.9725 5.89548ZM23.009 24.0452V15.3559H17.0013V24.0452H23.009ZM14.9987 24.0452V15.3559H8.99102V24.0452H14.9987Z" fill="#898989"/>
</svg>
