<svg width="32" height="32" viewBox="0 0 32 32" fill="none" xmlns="http://www.w3.org/2000/svg">
<path fill-rule="evenodd" clip-rule="evenodd" d="M7.95896 8.01946C13.0613 6.27996 18.9373 6.27995 24.0403 8.01957C24.3543 8.12661 24.5882 8.4237 24.6145 8.79189C25.0198 14.4625 24.4054 17.7428 23.0707 19.9777C21.7376 22.2097 19.5912 23.5695 16.4384 25.1799C16.1634 25.3203 15.8333 25.3203 15.5583 25.1799C12.4061 23.5696 10.2607 22.2099 8.92841 19.9779C7.59429 17.743 6.98033 14.4626 7.38481 8.79192C7.41107 8.42366 7.64498 8.1265 7.95896 8.01946ZM24.6857 6.12655C19.1643 4.2443 12.8344 4.24429 7.31359 6.12645C6.20367 6.50484 5.47064 7.51733 5.38987 8.64963C4.97554 14.4585 5.56153 18.2396 7.21111 21.003C8.86246 23.7694 11.4846 25.3447 14.6485 26.9609C15.4948 27.3933 16.5017 27.3933 17.3481 26.961C20.5124 25.3448 23.1356 23.7695 24.7877 21.0032C26.4382 18.2397 27.0247 14.4584 26.6094 8.6493C26.5285 7.51712 25.7954 6.50487 24.6857 6.12655ZM19.9301 13.7485C20.223 13.4556 20.223 12.9807 19.9301 12.6878C19.6372 12.3949 19.1623 12.3949 18.8694 12.6878L15.4501 16.1071L14.0056 14.6626C13.7127 14.3697 13.2378 14.3697 12.9449 14.6626C12.652 14.9555 12.652 15.4304 12.9449 15.7233L14.9198 17.6981L15.4501 18.2284L15.9804 17.6981L19.9301 13.7485Z" fill="#898989"/>
</svg>
