<svg width="32" height="32" viewBox="0 0 32 32" fill="none" xmlns="http://www.w3.org/2000/svg">
<path fill-rule="evenodd" clip-rule="evenodd" d="M25.294 13.5909L24.7682 14.4314L13.5624 7.42069C13.0941 7.12776 12.4771 7.26986 12.1842 7.73806C11.8913 8.20626 12.0334 8.82328 12.5016 9.1162L23.7074 16.1269L23.175 16.9779C22.8792 17.4507 23.3104 18.0427 23.8511 17.9063L26.5352 17.2292C26.8569 17.148 27.0574 16.8276 26.9897 16.5027L26.4246 13.7928C26.3108 13.2469 25.5898 13.1182 25.294 13.5909ZM6.9961 11.612L24.7661 22.7318L7.9961 22.7318C7.44382 22.7318 6.9961 22.2841 6.9961 21.7318V11.612ZM4.99609 11.612C4.99609 10.0407 6.72497 9.08308 8.05703 9.91663L25.827 21.0364C27.5299 22.102 26.7749 24.7318 24.7661 24.7318H7.9961C6.33924 24.7318 4.99609 23.3886 4.99609 21.7318V11.612Z" fill="#898989"/>
</svg>
