<svg width="32" height="32" viewBox="0 0 32 32" fill="none" xmlns="http://www.w3.org/2000/svg">
<path fill-rule="evenodd" clip-rule="evenodd" d="M26.2816 12.8561L15.9999 7.14404L5.71812 12.8561H6.99986H24.9999L26.2816 12.8561ZM4.74683 11.1078C3.17183 11.9828 3.51425 14.187 4.99986 14.7325V14.8561V23.8561C4.99986 25.513 6.34301 26.8561 7.99986 26.8561H11.9999H13.9999H17.9999H19.9999H23.9999C25.6567 26.8561 26.9999 25.513 26.9999 23.8561V14.8561V14.7325C28.4855 14.187 28.8279 11.9828 27.2529 11.1078L16.9712 5.39573C16.3671 5.06015 15.6326 5.06015 15.0286 5.39573L4.74683 11.1078ZM19.9999 24.8561H23.9999C24.5521 24.8561 24.9999 24.4084 24.9999 23.8561V14.8561H6.99986V23.8561C6.99986 24.4084 7.44758 24.8561 7.99986 24.8561H11.9999V20.8561C11.9999 19.1993 13.343 17.8561 14.9999 17.8561H16.9999C18.6567 17.8561 19.9999 19.1993 19.9999 20.8561V24.8561ZM13.9999 24.8561H17.9999V20.8561C17.9999 20.3038 17.5522 19.8561 16.9999 19.8561H14.9999C14.4476 19.8561 13.9999 20.3038 13.9999 20.8561V24.8561Z" fill="#898989"/>
</svg>
