<svg width="32" height="32" viewBox="0 0 32 32" fill="none" xmlns="http://www.w3.org/2000/svg">
<path fill-rule="evenodd" clip-rule="evenodd" d="M10.1094 7.53271H21.8887C22.441 7.53271 22.8887 7.98043 22.8887 8.53271V23.4675C22.8887 24.0198 22.441 24.4675 21.8887 24.4675H10.1094C9.55709 24.4675 9.10938 24.0198 9.10938 23.4675V8.53271C9.10938 7.98043 9.55709 7.53271 10.1094 7.53271ZM7.10938 8.53271C7.10938 6.87586 8.45252 5.53271 10.1094 5.53271H21.8887C23.5455 5.53271 24.8887 6.87586 24.8887 8.53271V23.4675C24.8887 25.1243 23.5455 26.4675 21.8887 26.4675H10.1094C8.45252 26.4675 7.10938 25.1243 7.10938 23.4675V8.53271ZM21.4704 18.9372C21.7633 18.6443 21.7633 18.1694 21.4704 17.8765C21.1775 17.5836 20.7027 17.5836 20.4098 17.8765L16.9904 21.2958L15.546 19.8514C15.2531 19.5585 14.7782 19.5585 14.4853 19.8514C14.1924 20.1442 14.1924 20.6191 14.4853 20.912L16.4601 22.8868L16.9904 23.4172L17.5208 22.8868L21.4704 18.9372ZM10.6354 11.1274C10.6354 10.7132 10.9711 10.3774 11.3854 10.3774H19.8717C20.2859 10.3774 20.6217 10.7132 20.6217 11.1274C20.6217 11.5417 20.2859 11.8774 19.8717 11.8774H11.3854C10.9711 11.8774 10.6354 11.5417 10.6354 11.1274ZM11.3854 13.3339C10.9711 13.3339 10.6354 13.6696 10.6354 14.0839C10.6354 14.4981 10.9711 14.8339 11.3854 14.8339H15.6275C16.0418 14.8339 16.3775 14.4981 16.3775 14.0839C16.3775 13.6696 16.0418 13.3339 15.6275 13.3339H11.3854Z" fill="#898989"/>
</svg>
