<svg width="31" height="32" viewBox="0 0 31 32" fill="none" xmlns="http://www.w3.org/2000/svg">
<path d="M25.8335 5.66683H21.7389L19.3752 3.0835H11.6252L9.26141 5.66683H5.16683C3.746 5.66683 2.5835 6.82933 2.5835 8.25016V23.7502C2.5835 25.171 3.746 26.3335 5.16683 26.3335H25.8335C27.2543 26.3335 28.4168 25.171 28.4168 23.7502V8.25016C28.4168 6.82933 27.2543 5.66683 25.8335 5.66683ZM25.8335 23.7502H5.16683V8.25016H10.3981L12.7618 5.66683H18.2385L20.6022 8.25016H25.8335V23.7502ZM15.5002 9.54183C11.9352 9.54183 9.04183 12.4352 9.04183 16.0002C9.04183 19.5652 11.9352 22.4585 15.5002 22.4585C19.0652 22.4585 21.9585 19.5652 21.9585 16.0002C21.9585 12.4352 19.0652 9.54183 15.5002 9.54183ZM15.5002 19.8752C13.3689 19.8752 11.6252 18.1314 11.6252 16.0002C11.6252 13.8689 13.3689 12.1252 15.5002 12.1252C17.6314 12.1252 19.3752 13.8689 19.3752 16.0002C19.3752 18.1314 17.6314 19.8752 15.5002 19.8752Z" fill="currentColor"/>
</svg>
