<svg width="32" height="32" viewBox="0 0 32 32" fill="none" xmlns="http://www.w3.org/2000/svg">
<path fill-rule="evenodd" clip-rule="evenodd" d="M24 9H8C7.44772 9 7 9.44772 7 10V21.7639L9.47214 20.5279C10.1664 20.1807 10.932 20 11.7082 20H24C24.5523 20 25 19.5523 25 19V10C25 9.44772 24.5523 9 24 9ZM7 24L10.3666 22.3167C10.7831 22.1084 11.2425 22 11.7082 22H24C25.6569 22 27 20.6569 27 19V10C27 8.34315 25.6569 7 24 7H8C6.34315 7 5 8.34315 5 10V22.7639V25L7 24ZM14.0197 14.6352L16.4004 11.3022C16.5912 11.0351 17.0123 11.1701 17.0123 11.4983V13.8191H17.7077C17.9821 13.8191 18.1417 14.1293 17.9822 14.3526L15.6015 17.6856C15.4108 17.9527 14.9896 17.8177 14.9896 17.4895V15.1687H14.2942C14.0198 15.1687 13.8602 14.8585 14.0197 14.6352Z" fill="#898989"/>
</svg>
