<svg width="32" height="32" viewBox="0 0 32 32" fill="none" xmlns="http://www.w3.org/2000/svg">
<path d="M25.5982 17.266C25.6499 16.8527 25.6886 16.4393 25.6886 16.0002C25.6886 15.561 25.6499 15.1477 25.5982 14.7343L28.3236 12.6031C28.5691 12.4093 28.6336 12.0606 28.4786 11.7764L25.8953 7.30725C25.7791 7.10058 25.5595 6.98433 25.327 6.98433C25.2495 6.98433 25.172 6.99725 25.1074 7.02308L21.8911 8.31475C21.2195 7.79808 20.4961 7.37183 19.7082 7.04891L19.2174 3.626C19.1786 3.316 18.9074 3.0835 18.5845 3.0835H13.4178C13.0949 3.0835 12.8236 3.316 12.7849 3.626L12.2941 7.04891C11.5061 7.37183 10.7828 7.811 10.1111 8.31475L6.89489 7.02308C6.81739 6.99725 6.73989 6.98433 6.66239 6.98433C6.4428 6.98433 6.22322 7.10058 6.10697 7.30725L3.52364 11.7764C3.35572 12.0606 3.43322 12.4093 3.67864 12.6031L6.40405 14.7343C6.35239 15.1477 6.31364 15.5739 6.31364 16.0002C6.31364 16.4264 6.35239 16.8527 6.40405 17.266L3.67864 19.3972C3.43322 19.591 3.36864 19.9397 3.52364 20.2239L6.10697 24.6931C6.22322 24.8997 6.4428 25.016 6.6753 25.016C6.7528 25.016 6.8303 25.0031 6.89489 24.9772L10.1111 23.6856C10.7828 24.2022 11.5061 24.6285 12.2941 24.9514L12.7849 28.3743C12.8236 28.6843 13.0949 28.9168 13.4178 28.9168H18.5845C18.9074 28.9168 19.1786 28.6843 19.2174 28.3743L19.7082 24.9514C20.4961 24.6285 21.2195 24.1893 21.8911 23.6856L25.1074 24.9772C25.1849 25.0031 25.2624 25.016 25.3399 25.016C25.5595 25.016 25.7791 24.8997 25.8953 24.6931L28.4786 20.2239C28.6336 19.9397 28.5691 19.591 28.3236 19.3972L25.5982 17.266V17.266ZM23.0407 15.0572C23.0924 15.4577 23.1053 15.7289 23.1053 16.0002C23.1053 16.2714 23.0795 16.5556 23.0407 16.9431L22.8599 18.4027L24.0095 19.3068L25.4045 20.3918L24.5003 21.9547L22.8599 21.296L21.5166 20.7535L20.3541 21.6318C19.7986 22.0452 19.2691 22.3552 18.7395 22.5747L17.3703 23.1302L17.1636 24.5897L16.9053 26.3335H15.097L14.8516 24.5897L14.6449 23.1302L13.2757 22.5747C12.7203 22.3422 12.2036 22.0452 11.687 21.6577L10.5116 20.7535L9.14239 21.3089L7.50197 21.9677L6.5978 20.4047L7.9928 19.3197L9.14239 18.4156L8.96155 16.956C8.9228 16.5556 8.89697 16.2585 8.89697 16.0002C8.89697 15.7418 8.9228 15.4447 8.96155 15.0572L9.14239 13.5977L7.9928 12.6935L6.5978 11.6085L7.50197 10.0456L9.14239 10.7043L10.4857 11.2468L11.6482 10.3685C12.2036 9.95516 12.7332 9.64516 13.2628 9.42558L14.632 8.87016L14.8386 7.41058L15.097 5.66683H16.8924L17.1378 7.41058L17.3445 8.87016L18.7136 9.42558C19.2691 9.65808 19.7857 9.95516 20.3024 10.3427L21.4778 11.2468L22.847 10.6914L24.4874 10.0327L25.3916 11.5956L24.0095 12.6935L22.8599 13.5977L23.0407 15.0572ZM16.0011 10.8335C13.1466 10.8335 10.8345 13.1456 10.8345 16.0002C10.8345 18.8547 13.1466 21.1668 16.0011 21.1668C18.8557 21.1668 21.1678 18.8547 21.1678 16.0002C21.1678 13.1456 18.8557 10.8335 16.0011 10.8335ZM16.0011 18.5835C14.5803 18.5835 13.4178 17.421 13.4178 16.0002C13.4178 14.5793 14.5803 13.4168 16.0011 13.4168C17.422 13.4168 18.5845 14.5793 18.5845 16.0002C18.5845 17.421 17.422 18.5835 16.0011 18.5835Z" fill="currentColor"/>
</svg>
