<svg width="32" height="32" viewBox="0 0 32 32" fill="none" xmlns="http://www.w3.org/2000/svg">
<path fill-rule="evenodd" clip-rule="evenodd" d="M7.68611 10.4443C6.5905 12.084 6.00423 14.0109 6.00082 15.9827H7.47793C8.10933 15.9827 8.41801 16.7528 7.96142 17.1889L5.48332 19.5559C5.21278 19.8143 4.78687 19.8143 4.51633 19.5559L2.03822 17.1889C1.58164 16.7528 1.89032 15.9827 2.52172 15.9827H4.00081C4.00423 13.6154 4.70779 11.3018 6.02317 9.33316C7.34174 7.35977 9.21589 5.8217 11.4086 4.91345C13.6013 4.0052 16.0141 3.76756 18.3419 4.23058C20.6697 4.69361 22.8079 5.83649 24.4861 7.51473C24.8766 7.90525 24.8766 8.53841 24.4861 8.92894C24.0956 9.31946 23.4624 9.31946 23.0719 8.92894C21.6733 7.53041 19.8915 6.578 17.9517 6.19215C16.0119 5.8063 14.0012 6.00433 12.174 6.76121C10.3467 7.51809 8.78492 8.79981 7.68611 10.4443ZM26.5183 12.4441C26.7888 12.1857 27.2147 12.1857 27.4853 12.4441L29.9634 14.8111C30.42 15.2472 30.1113 16.0173 29.4799 16.0173H28.0008C27.9974 18.3847 27.2938 20.6983 25.9784 22.6668C24.6599 24.6402 22.7857 26.1783 20.593 27.0866C18.4003 27.9948 15.9875 28.2325 13.6597 27.7694C11.3319 27.3064 9.19375 26.1635 7.51552 24.4853C7.12499 24.0948 7.12499 23.4616 7.51552 23.0711C7.90604 22.6805 8.53921 22.6805 8.92973 23.0711C10.3283 24.4696 12.1101 25.422 14.0499 25.8079C15.9897 26.1937 18.0004 25.9957 19.8276 25.2388C21.6549 24.4819 23.2167 23.2002 24.3155 21.5557C25.4111 19.916 25.9974 17.9891 26.0008 16.0173H24.5237C23.8923 16.0173 23.5836 15.2472 24.0402 14.8111L26.5183 12.4441ZM13.895 20.0741C14.031 20.2101 14.223 20.2781 14.471 20.2781C14.727 20.2781 14.919 20.2101 15.047 20.0741C15.183 19.9301 15.251 19.7261 15.251 19.4621V18.5141H16.691C16.875 18.5141 17.015 18.4701 17.111 18.3821C17.215 18.2861 17.267 18.1541 17.267 17.9861C17.267 17.8181 17.215 17.6901 17.111 17.6021C17.015 17.5061 16.875 17.4581 16.691 17.4581H15.251V16.6421H16.619C17.211 16.6421 17.715 16.5421 18.131 16.3421C18.547 16.1421 18.867 15.8621 19.091 15.5021C19.315 15.1421 19.427 14.7181 19.427 14.2301C19.427 13.7261 19.315 13.2861 19.091 12.9101C18.875 12.5341 18.551 12.2421 18.119 12.0341C17.695 11.8261 17.175 11.7221 16.559 11.7221H14.459C14.211 11.7221 14.019 11.7901 13.883 11.9261C13.755 12.0541 13.691 12.2421 13.691 12.4901V15.5861H13.151C12.967 15.5861 12.823 15.6341 12.719 15.7301C12.623 15.8181 12.575 15.9461 12.575 16.1141C12.575 16.2821 12.623 16.4141 12.719 16.5101C12.823 16.5981 12.967 16.6421 13.151 16.6421H13.691V17.4581H13.151C12.967 17.4581 12.823 17.5061 12.719 17.6021C12.623 17.6901 12.575 17.8181 12.575 17.9861C12.575 18.1541 12.623 18.2861 12.719 18.3821C12.823 18.4701 12.967 18.5141 13.151 18.5141H13.691V19.4621C13.691 19.7261 13.759 19.9301 13.895 20.0741ZM15.227 15.5861H16.367C16.871 15.5861 17.259 15.4901 17.531 15.2981C17.803 15.1061 17.939 14.7861 17.939 14.3381C17.939 13.8901 17.803 13.5581 17.531 13.3421C17.267 13.1261 16.879 13.0181 16.367 13.0181H15.227V15.5861Z" fill="#898989"/>
</svg>
