<svg width="540" height="232" viewBox="0 0 540 232" fill="none" xmlns="http://www.w3.org/2000/svg">
<rect width="540" height="232" rx="40" fill="#313131"/>
<path d="M82.4855 158.765V141.743L142.743 46.556H156.157V71.6123H147.646L104.546 139.836V140.926H187.137V158.765H82.4855ZM148.599 186V153.59L148.735 145.828V46.556H168.685V186H148.599Z" fill="#F5F5F5"/>
<path d="M296.855 89.1452C333.738 126.029 351.615 167.952 336.784 182.784C321.952 197.615 280.029 179.738 243.145 142.855C206.262 105.971 188.385 64.0478 203.216 49.2163C218.048 34.3848 259.971 52.2615 296.855 89.1452Z" fill="#F5F5F5"/>
<path d="M352.486 158.765V141.743L412.743 46.556H426.157V71.6123H417.646L374.546 139.836V140.926H457.137V158.765H352.486ZM418.599 186V153.59L418.735 145.828V46.556H438.685V186H418.599Z" fill="#F5F5F5"/>
</svg>
