<svg width="531" height="232" viewBox="0 0 531 232" fill="none" xmlns="http://www.w3.org/2000/svg">
<rect width="531" height="232" rx="40" fill="#313131"/>
<path d="M131.441 187.906C122.907 187.906 115.236 186.272 108.427 183.004C101.664 179.691 96.262 175.151 92.2221 169.387C88.1822 163.622 86.0261 157.04 85.7538 149.641H106.18C106.679 155.633 109.335 160.558 114.146 164.416C118.958 168.274 124.723 170.204 131.441 170.204C136.797 170.204 141.54 168.978 145.671 166.527C149.847 164.03 153.115 160.603 155.476 156.246C157.882 151.888 159.084 146.918 159.084 141.334C159.084 135.66 157.859 130.599 155.408 126.151C152.957 121.702 149.575 118.207 145.263 115.665C140.996 113.123 136.093 111.83 130.556 111.784C126.334 111.784 122.09 112.51 117.823 113.963C113.556 115.416 110.107 117.322 107.474 119.682L88.2049 116.823L96.035 46.556H172.702V64.5993H113.534L109.108 103.614H109.925C112.648 100.981 116.257 98.7794 120.751 97.0091C125.29 95.2388 130.147 94.3537 135.322 94.3537C143.81 94.3537 151.368 96.3736 157.995 100.414C164.668 104.453 169.91 109.969 173.723 116.959C177.582 123.904 179.488 131.893 179.443 140.926C179.488 149.959 177.445 158.016 173.315 165.097C169.23 172.178 163.556 177.761 156.293 181.847C149.076 185.887 140.791 187.906 131.441 187.906Z" fill="#F5F5F5"/>
<path d="M289.855 89.1452C326.738 126.029 344.615 167.952 329.784 182.784C314.952 197.615 273.029 179.738 236.145 142.855C199.262 105.971 181.385 64.0478 196.216 49.2163C211.048 34.3848 252.971 52.2615 289.855 89.1452Z" fill="#F5F5F5"/>
<path d="M396.96 188.315C386.202 188.27 377.01 185.433 369.384 179.804C361.759 174.175 355.926 165.982 351.886 155.224C347.846 144.466 345.826 131.507 345.826 116.346C345.826 101.231 347.846 88.3166 351.886 77.6041C355.971 66.8916 361.827 58.721 369.452 53.0924C377.124 47.4638 386.293 44.6495 396.96 44.6495C407.627 44.6495 416.774 47.4865 424.399 53.1605C432.025 58.7891 437.858 66.9596 441.898 77.6721C445.983 88.3392 448.026 101.231 448.026 116.346C448.026 131.552 446.006 144.534 441.966 155.292C437.926 166.005 432.093 174.198 424.468 179.872C416.842 185.501 407.672 188.315 396.96 188.315ZM396.96 170.136C406.402 170.136 413.778 165.528 419.089 156.314C424.445 147.099 427.123 133.777 427.123 116.346C427.123 104.771 425.897 94.9892 423.446 87.0002C421.04 78.9658 417.568 72.8833 413.029 68.7526C408.535 64.5766 403.179 62.4885 396.96 62.4885C387.564 62.4885 380.188 67.1185 374.831 76.3785C369.475 85.6384 366.774 98.961 366.729 116.346C366.729 127.966 367.932 137.794 370.338 145.828C372.789 153.817 376.261 159.877 380.755 164.008C385.249 168.093 390.651 170.136 396.96 170.136Z" fill="#F5F5F5"/>
</svg>
