<svg width="500" height="500" viewBox="0 0 500 500" fill="none" xmlns="http://www.w3.org/2000/svg">
<path d="M245.361 416.667C245.361 462.69 208.051 500 162.027 500C116.004 500 78.6943 462.69 78.6943 416.667C78.6943 370.643 116.004 333.333 162.027 333.333C208.051 333.333 245.361 370.643 245.361 416.667Z" fill="#FFC35D"/>
<path d="M245.361 250C245.361 296.024 208.051 333.333 162.027 333.333C116.004 333.333 78.6943 296.024 78.6943 250C78.6943 203.976 116.004 166.667 162.027 166.667C208.051 166.667 245.361 203.976 245.361 250Z" fill="#3B68D9"/>
<path d="M245.361 83.3333C245.361 129.357 208.051 166.667 162.027 166.667C116.004 166.667 78.6943 129.357 78.6943 83.3333C78.6943 37.3096 116.004 0 162.027 0C208.051 0 245.361 37.3096 245.361 83.3333Z" fill="#FE687A"/>
<path d="M412.028 416.667C412.028 462.69 374.718 500 328.694 500C282.67 500 245.361 462.69 245.361 416.667C245.361 370.643 282.67 333.333 328.694 333.333C374.718 333.333 412.028 370.643 412.028 416.667Z" fill="#3B68D9"/>
<path d="M412.028 250C412.028 296.024 374.718 333.333 328.694 333.333C282.67 333.333 245.361 296.024 245.361 250C245.361 203.976 282.67 166.667 328.694 166.667C374.718 166.667 412.028 203.976 412.028 250Z" fill="#FE687A"/>
<path d="M412.028 83.3333C412.028 129.357 374.718 166.667 328.694 166.667C282.67 166.667 245.361 129.357 245.361 83.3333C245.361 37.3096 282.67 0 328.694 0C374.718 0 412.028 37.3096 412.028 83.3333Z" fill="#FFC35D"/>
<path d="M0 166.54C43.8658 164.133 78.694 127.8 78.694 83.3333C78.694 38.8663 43.8658 2.53388 0 0.126953V166.54Z" fill="#3B68D9"/>
<path d="M0 333.206V166.794C43.8658 169.2 78.694 205.533 78.694 250C78.694 294.467 43.8658 330.799 0 333.206Z" fill="#FFC35D"/>
<path d="M0 499.873V333.46C43.8658 335.867 78.694 372.199 78.694 416.667C78.694 461.134 43.8658 497.466 0 499.873Z" fill="#FE687A"/>
<path d="M500 0.126959V166.54C498.464 166.624 496.918 166.667 495.361 166.667C449.337 166.667 412.028 129.357 412.028 83.3333C412.028 37.3096 449.337 0 495.361 0C496.918 0 498.464 0.0426889 500 0.126959Z" fill="#3B68D9"/>
<path d="M500 166.794V333.206C498.464 333.291 496.918 333.333 495.361 333.333C449.337 333.333 412.028 296.024 412.028 250C412.028 203.976 449.337 166.667 495.361 166.667C496.918 166.667 498.464 166.709 500 166.794Z" fill="#FFC35D"/>
<path d="M500 499.873C498.464 499.957 496.918 500 495.361 500C449.337 500 412.028 462.69 412.028 416.667C412.028 370.643 449.337 333.333 495.361 333.333C496.918 333.333 498.464 333.376 500 333.46V499.873Z" fill="#FE687A"/>
<path fill-rule="evenodd" clip-rule="evenodd" d="M318.284 62.851C318.284 71.5626 313.55 78.6248 307.712 78.6248C301.873 78.6248 297.14 71.5626 297.14 62.851C297.14 54.1393 301.873 47.0771 307.712 47.0771C313.55 47.0771 318.284 54.1393 318.284 62.851ZM360.249 62.851C360.249 71.5626 355.515 78.6248 349.677 78.6248C343.838 78.6248 339.105 71.5626 339.105 62.851C339.105 54.1393 343.838 47.0771 349.677 47.0771C355.515 47.0771 360.249 54.1393 360.249 62.851ZM289.801 96.1622C288.404 93.7806 285.34 92.9829 282.958 94.3806C280.577 95.7783 279.779 98.8419 281.177 101.224C290.533 117.166 309.181 124.596 327.418 124.59C345.694 124.584 364.93 117.144 375.976 101.588C377.575 99.3362 377.046 96.2149 374.794 94.6161C372.543 93.0173 369.422 93.5465 367.823 95.798C359.099 108.084 343.311 114.585 327.415 114.59C311.481 114.595 296.809 108.104 289.801 96.1622Z" fill="white"/>
<path fill-rule="evenodd" clip-rule="evenodd" d="M139.045 93.7437C147.757 93.7437 154.819 98.4768 154.819 104.316C154.819 110.154 147.757 114.887 139.045 114.887C130.334 114.887 123.271 110.154 123.271 104.316C123.271 98.4768 130.334 93.7437 139.045 93.7437ZM139.045 51.7787C147.757 51.7787 154.819 56.5119 154.819 62.3505C154.819 68.1892 147.757 72.9224 139.045 72.9224C130.334 72.9224 123.271 68.1892 123.271 62.3505C123.271 56.5119 130.334 51.7787 139.045 51.7787ZM172.357 122.226C169.975 123.624 169.177 126.687 170.575 129.069C171.973 131.451 175.036 132.248 177.418 130.851C193.36 121.495 200.79 102.846 200.784 84.6088C200.779 66.3329 193.338 47.0971 177.782 36.0511C175.531 34.4523 172.409 34.9814 170.81 37.2329C169.212 39.4845 169.741 42.6058 171.992 44.2045C184.278 52.9286 190.779 68.7161 190.784 84.6119C190.789 100.546 184.298 115.218 172.357 122.226Z" fill="white"/>
<path fill-rule="evenodd" clip-rule="evenodd" d="M170.917 226.387C164.757 232.547 156.417 234.194 152.288 230.066C148.16 225.937 149.806 217.597 155.966 211.437C162.127 205.277 170.467 203.63 174.596 207.758C178.724 211.887 177.077 220.227 170.917 226.387ZM200.591 256.061C194.431 262.221 186.09 263.868 181.962 259.739C177.833 255.611 179.48 247.27 185.64 241.11C191.8 234.95 200.141 233.303 204.269 237.432C208.398 241.561 206.751 249.901 200.591 256.061ZM127.223 229.802C127.918 227.13 126.316 224.399 123.644 223.704C120.971 223.008 118.241 224.61 117.545 227.282C112.888 245.171 120.821 263.611 133.721 276.503C146.648 289.422 165.511 297.762 184.321 294.573C187.044 294.112 188.877 291.531 188.415 288.808C187.954 286.085 185.372 284.252 182.65 284.714C167.793 287.233 152.033 280.666 140.789 269.43C129.519 258.166 123.734 243.202 127.223 229.802Z" fill="white"/>
<path fill-rule="evenodd" clip-rule="evenodd" d="M344.996 239.589C336.284 239.589 329.222 234.856 329.222 229.017C329.222 223.179 336.284 218.446 344.996 218.446C353.707 218.446 360.77 223.179 360.77 229.017C360.77 234.856 353.707 239.589 344.996 239.589ZM344.996 281.554C336.284 281.554 329.222 276.821 329.222 270.982C329.222 265.144 336.284 260.411 344.996 260.411C353.707 260.411 360.77 265.144 360.77 270.982C360.77 276.821 353.707 281.554 344.996 281.554ZM311.684 211.107C314.066 209.709 314.864 206.646 313.466 204.264C312.068 201.882 309.005 201.085 306.623 202.482C290.681 211.838 283.251 230.487 283.257 248.724C283.262 267 290.703 286.236 306.259 297.282C308.51 298.881 311.632 298.352 313.231 296.1C314.829 293.849 314.3 290.727 312.049 289.128C299.763 280.404 293.262 264.617 293.257 248.721C293.252 232.787 299.743 218.115 311.684 211.107Z" fill="white"/>
<path fill-rule="evenodd" clip-rule="evenodd" d="M185.64 425.556C179.48 419.396 177.833 411.056 181.962 406.927C186.091 402.799 194.431 404.446 200.591 410.606C206.751 416.766 208.398 425.106 204.27 429.235C200.141 433.363 191.8 431.717 185.64 425.556ZM155.967 455.23C149.807 449.07 148.16 440.73 152.288 436.601C156.417 432.472 164.757 434.119 170.918 440.279C177.078 446.439 178.724 454.78 174.596 458.909C170.467 463.037 162.127 461.39 155.967 455.23ZM182.226 381.862C184.898 382.558 187.629 380.955 188.324 378.283C189.02 375.611 187.418 372.88 184.745 372.184C166.857 367.527 148.417 375.46 135.525 388.36C122.606 401.287 114.266 420.15 117.455 438.96C117.916 441.683 120.497 443.516 123.22 443.054C125.942 442.593 127.775 440.011 127.314 437.289C124.795 422.433 131.362 406.672 142.598 395.429C153.862 384.158 168.826 378.373 182.226 381.862Z" fill="white"/>
<path fill-rule="evenodd" clip-rule="evenodd" d="M339.105 439.649C339.105 430.937 343.838 423.875 349.677 423.875C355.516 423.875 360.249 430.937 360.249 439.649C360.249 448.361 355.516 455.423 349.677 455.423C343.838 455.423 339.105 448.361 339.105 439.649ZM297.14 439.649C297.14 430.937 301.873 423.875 307.712 423.875C313.551 423.875 318.284 430.937 318.284 439.649C318.284 448.361 313.551 455.423 307.712 455.423C301.873 455.423 297.14 448.361 297.14 439.649ZM367.587 406.338C368.985 408.719 372.049 409.517 374.43 408.119C376.812 406.722 377.61 403.658 376.212 401.276C366.856 385.334 348.208 377.904 329.97 377.91C311.694 377.916 292.458 385.356 281.412 400.912C279.814 403.164 280.343 406.285 282.594 407.884C284.846 409.483 287.967 408.953 289.566 406.702C298.29 394.416 314.077 387.915 329.973 387.91C345.907 387.905 360.579 394.396 367.587 406.338Z" fill="white"/>
</svg>
